HIERARCHY
ROOT SpineBase
{
  OFFSET 0.000000 0.000000 0.000000
  CHANNELS 6 Xposition Yposition Zposition Zrotation Xrotation Yrotation
  JOINT SpineMid
  {
    OFFSET 0.000000 30.853340 0.000000
    CHANNELS 3 Zrotation Xrotation Yrotation
    JOINT SpineShoulder
    {
      OFFSET 0.029947 22.881497 -0.742765
      CHANNELS 3 Zrotation Xrotation Yrotation
      JOINT Neck
      {
        OFFSET 0.035527 7.562594 -0.553289
        CHANNELS 3 Zrotation Xrotation Yrotation
        JOINT Head
        {
          OFFSET -4.016927 13.173324 -0.029949
          CHANNELS 3 Zrotation Xrotation Yrotation
          End Site
          {
            OFFSET 0 0 0
          }
        }
      }
      JOINT ShoulderLeft
      {
        OFFSET -17.254647 -3.942484 9.257367
        CHANNELS 3 Zrotation Xrotation Yrotation
        JOINT ElbowLeft
        {
          OFFSET -2.940121 -26.490378 2.362946
          CHANNELS 3 Zrotation Xrotation Yrotation
          JOINT WristLeft
          {
            OFFSET -1.733704 -14.682136 -16.126936
            CHANNELS 3 Zrotation Xrotation Yrotation
            JOINT HandLeft
            {
              OFFSET -3.441826 0.905495 -4.514803
              CHANNELS 3 Zrotation Xrotation Yrotation
              JOINT HandTipLeft
              {
                OFFSET -1.769472 -2.797660 -5.680352
                CHANNELS 3 Zrotation Xrotation Yrotation
                End Site
                {
                  OFFSET 0 0 0
                }
              }
              JOINT ThumbLeft
              {
                OFFSET -3.090072 1.730860 -1.032240
                CHANNELS 3 Zrotation Xrotation Yrotation
                End Site
                {
                  OFFSET 0 0 0
                }
              }
            }
          }
        }
      }
      JOINT ShoulderRight
      {
        OFFSET 13.418391 -4.039440 -7.292918
        CHANNELS 3 Zrotation Xrotation Yrotation
        JOINT ElbowRight
        {
          OFFSET 5.873031 -22.562468 -2.865747
          CHANNELS 3 Zrotation Xrotation Yrotation
          JOINT WristRight
          {
            OFFSET -15.116545 -11.492617 -10.357634
            CHANNELS 3 Zrotation Xrotation Yrotation
            JOINT HandRight
            {
              OFFSET -5.151096 -1.760974 -0.554528
              CHANNELS 3 Zrotation Xrotation Yrotation
              JOINT HandTipRight
              {
                OFFSET -6.368856 -2.129832 -7.922762
                CHANNELS 3 Zrotation Xrotation Yrotation
                End Site
                {
                  OFFSET 0 0 0
                }
              }
              JOINT ThumbRight
              {
                OFFSET -2.381803 -1.451382 0.976634
                CHANNELS 3 Zrotation Xrotation Yrotation
                End Site
                {
                  OFFSET 0 0 0
                }
              }
            }
          }
        }
      }
    }
  }
  JOINT HipLeft
  {
    OFFSET -5.636905 -0.178058 -0.466801
    CHANNELS 3 Zrotation Xrotation Yrotation
    JOINT KneeLeft
    {
      OFFSET 0.560138 -36.474832 5.044814
      CHANNELS 3 Zrotation Xrotation Yrotation
      JOINT AnkleLeft
      {
        OFFSET 6.875638 -37.029966 11.373980
        CHANNELS 3 Zrotation Xrotation Yrotation
        JOINT FootLeft
        {
          OFFSET -1.954834 -8.097511 -5.030539
          CHANNELS 3 Zrotation Xrotation Yrotation
          End Site
          {
            OFFSET 0 0 0
          }
        }
      }
    }
  }
  JOINT HipRight
  {
    OFFSET 6.253781 1.561688 -5.941636
    CHANNELS 3 Zrotation Xrotation Yrotation
    JOINT KneeRight
    {
      OFFSET 7.037004 -36.221893 -2.268264
      CHANNELS 3 Zrotation Xrotation Yrotation
      JOINT AnkleRight
      {
        OFFSET 6.800681 -38.905317 6.938582
        CHANNELS 3 Zrotation Xrotation Yrotation
        JOINT FootRight
        {
          OFFSET -0.656632 -8.145966 -5.475445
          CHANNELS 3 Zrotation Xrotation Yrotation
          End Site
          {
            OFFSET 0 0 0
          }
        }
      }
    }
  }
}
MOTION
Frames: 10
Frame Time: 0.033333
-35.706172 85.411735 330.447955 -0.104933 -2.351084 34.793049 0.153826 0.046072 -34.794447 0.027546 -0.039547 0.009005 3.077079 0.267928 -0.676648 0.000000 0.000000 0.000000 -3.101527 0.362932 -0.004709 -13.856325 -9.392438 20.696596 37.498481 -1.157810 36.095022 -25.680801 13.437662 -28.111219 0.000000 0.000000 0.000000 0.000000 0.000000 0.000000 -20.953363 19.300083 11.421013 -26.180559 2.215470 2.908623 3.766294 -6.108871 -22.402035 27.269142 9.635040 9.982440 0.000000 0.000000 0.000000 0.000000 0.000000 0.000000 1.428264 1.870665 -34.818522 1.633132 -1.045974 0.320601 0.312345 -8.807038 1.065268 0.000000 0.000000 0.000000 -0.053105 -1.122576 -35.482241 1.581940 0.715337 0.531359 -0.175851 -1.497022 -0.862148 0.000000 0.000000 0.000000
-35.812687 85.463252 330.478445 -0.055492 -2.502453 35.070030 0.090707 -0.047783 -35.068661 0.005729 -0.112176 0.011172 2.814394 1.761559 -0.370660 0.000000 0.000000 0.000000 -3.711004 1.941514 -0.122213 -12.940532 -12.816272 20.568459 35.585511 2.992731 34.214622 -24.534290 10.224211 -29.880278 0.000000 0.000000 0.000000 0.000000 0.000000 0.000000 -22.586866 20.577419 12.567169 -23.284787 1.037638 1.211160 6.115712 -6.262010 -22.660039 22.949110 8.653888 13.334177 0.000000 0.000000 0.000000 0.000000 0.000000 0.000000 1.483896 2.016013 -35.097352 1.905705 -1.005846 0.412974 -0.282376 -7.177836 0.699941 0.000000 0.000000 0.000000 -0.086949 -0.810957 -35.727826 1.980970 0.610557 0.535297 -0.237992 -1.503017 -1.022659 0.000000 0.000000 0.000000
-35.912694 85.448957 330.520928 0.011637 -2.705092 35.230361 -0.025972 -0.260123 -35.224770 -0.031181 -0.209792 0.015325 2.504995 3.744143 0.012742 0.000000 0.000000 0.000000 -4.466397 3.224655 -0.174271 -11.876128 -15.464894 20.490642 34.323051 5.249194 29.792538 -22.681097 8.077864 -29.467388 0.000000 0.000000 0.000000 0.000000 0.000000 0.000000 -24.648268 22.378863 14.167346 -20.116053 -0.512531 -0.812162 8.243646 -5.945523 -23.421048 18.035775 6.206596 21.013171 0.000000 0.000000 0.000000 0.000000 0.000000 0.000000 1.551738 2.216070 -35.260100 2.246087 -0.875784 0.541295 -1.404044 -5.806660 0.635619 0.000000 0.000000 0.000000 -0.070331 -0.412646 -35.846476 2.360913 0.529355 0.542504 -0.306824 -1.648725 -1.171799 0.000000 0.000000 0.000000
-36.000067 85.295476 330.602904 0.080156 -3.019469 35.018524 -0.151988 -0.548847 -35.008354 -0.079773 -0.279709 0.021428 2.007491 5.860778 0.408950 0.000000 0.000000 0.000000 -5.260523 4.917436 -0.208746 -10.487463 -18.445229 20.096499 32.157547 8.976814 25.877754 -19.885637 6.890388 -28.887202 0.000000 0.000000 0.000000 0.000000 0.000000 0.000000 -27.364455 24.129050 16.108227 -15.374901 -2.403189 -3.139219 6.771512 -3.841621 -24.710565 17.688098 3.688290 26.635197 0.000000 0.000000 0.000000 0.000000 0.000000 0.000000 0.500774 2.558564 -35.146325 3.618349 0.020745 0.815445 -2.260554 -5.219000 0.521780 0.000000 0.000000 0.000000 0.129637 0.153956 -35.571858 2.667540 0.306698 0.531755 -0.338605 -1.630898 -1.341436 0.000000 0.000000 0.000000
-36.065944 85.309457 330.653954 0.226401 -3.503547 35.542994 -0.292756 -0.832736 -35.523039 -0.106197 -0.374372 0.033070 1.624944 7.815885 0.692394 0.000000 0.000000 0.000000 -6.052280 6.630661 -0.186430 -9.574327 -20.740537 20.048829 31.411489 10.763736 22.505220 -18.524853 7.089880 -26.603332 0.000000 0.000000 0.000000 0.000000 0.000000 0.000000 -29.716782 26.285296 18.179573 -12.162945 -3.759427 -5.442158 5.325120 -2.438769 -25.759161 20.851530 2.414868 26.321902 0.000000 0.000000 0.000000 0.000000 0.000000 0.000000 0.178139 2.999444 -35.701182 4.431831 0.729712 1.038204 -3.182519 -4.597889 0.356679 0.000000 0.000000 0.000000 0.256018 0.748008 -36.066681 2.931011 0.309486 0.548448 -0.305435 -1.697747 -1.518703 0.000000 0.000000 0.000000
-36.121902 85.445885 330.662638 0.437129 -4.153997 36.468869 -0.428005 -1.030875 -36.432758 -0.123265 -0.437855 0.047156 1.482912 9.739035 0.922511 0.000000 0.000000 0.000000 -6.833916 7.938467 -0.103276 -8.770634 -22.536895 20.137985 31.429542 12.142766 20.657101 -18.488439 7.289191 -24.550349 0.000000 0.000000 0.000000 0.000000 0.000000 0.000000 -31.929353 28.575015 20.363358 -10.396546 -4.082145 -7.771538 3.225283 -2.117827 -25.959657 24.060493 4.422698 20.678716 0.000000 0.000000 0.000000 0.000000 0.000000 0.000000 -0.076942 3.563121 -36.643445 5.184719 1.565085 1.246865 -3.466706 -4.540652 -0.055637 0.000000 0.000000 0.000000 0.382221 1.336802 -36.996637 3.064034 0.553683 0.591983 -0.117268 -1.947196 -1.733217 0.000000 0.000000 0.000000
-36.176808 85.577642 330.667084 0.721807 -4.939664 36.936516 -0.522611 -1.101969 -36.874122 -0.132890 -0.441875 0.062437 1.364215 11.142757 1.010706 0.000000 0.000000 0.000000 -7.163355 8.440598 0.017451 -8.738583 -23.067577 20.453687 32.390550 11.597658 18.736914 -19.241915 7.058896 -22.665987 0.000000 0.000000 0.000000 0.000000 0.000000 0.000000 -32.627947 30.907237 21.846079 -11.239658 -3.615798 -9.599957 1.002432 -2.273015 -25.924877 27.916127 5.980882 16.936377 0.000000 0.000000 0.000000 0.000000 0.000000 0.000000 -0.269159 4.117247 -37.098766 5.689708 2.510616 1.395038 -3.730728 -4.379624 -0.418118 0.000000 0.000000 0.000000 0.601629 2.045825 -37.467455 3.059130 0.813691 0.634646 0.083980 -2.312946 -1.896952 0.000000 0.000000 0.000000
-36.231953 85.899811 330.589540 0.989931 -5.721209 37.853514 -0.548112 -1.031805 -37.761565 -0.127338 -0.410240 0.075261 1.549212 11.904843 0.931289 0.000000 0.000000 0.000000 -7.016607 7.663357 0.161527 -9.208384 -21.791410 20.766830 34.607447 8.124329 17.453572 -22.104979 6.696498 -18.974870 0.000000 0.000000 0.000000 0.000000 0.000000 0.000000 -32.236944 33.136472 22.682610 -14.449401 -2.182709 -10.897266 0.444033 -3.813470 -25.402823 31.049950 7.236908 13.665595 0.000000 0.000000 0.000000 0.000000 0.000000 0.000000 -0.262855 4.659343 -37.990902 5.937986 3.319612 1.482826 -4.570843 -4.161162 -0.301131 0.000000 0.000000 0.000000 0.766883 2.530811 -38.430591 2.926764 1.255643 0.695936 0.299853 -2.593384 -2.001063 0.000000 0.000000 0.000000
-36.291534 86.316667 330.430574 1.245923 -6.430548 38.864923 -0.498562 -0.839299 -38.741444 -0.106079 -0.338637 0.085176 1.777178 12.000026 0.736396 0.000000 0.000000 0.000000 -6.578940 5.901042 0.319161 -9.898540 -19.364860 21.039182 36.613332 3.270176 14.986261 -24.406130 6.910409 -13.817933 0.000000 0.000000 0.000000 0.000000 0.000000 0.000000 -31.377148 35.126373 23.097016 -18.085579 -0.776828 -11.897811 -0.342791 -5.070920 -25.093613 34.709423 8.876603 9.117007 0.000000 0.000000 0.000000 0.000000 0.000000 0.000000 -0.090221 5.249317 -38.974787 6.009764 3.741351 1.517004 -4.900648 -3.706388 -0.349138 0.000000 0.000000 0.000000 0.871634 2.929163 -39.489521 2.823454 1.626970 0.745960 0.452785 -2.773600 -2.046843 0.000000 0.000000 0.000000
-36.354404 86.844152 330.158736 1.448523 -6.952694 39.921421 -0.419963 -0.587610 -39.771238 -0.067078 -0.291951 0.090995 1.973447 11.706657 0.521157 0.000000 0.000000 0.000000 -6.006631 3.480695 0.502525 -10.483474 -16.191233 21.126743 38.240805 -1.891009 12.916962 -26.511755 6.324675 -8.342968 0.000000 0.000000 0.000000 0.000000 0.000000 0.000000 -30.123303 36.775097 23.101882 -22.219755 0.440759 -12.336439 -1.726851 -6.853804 -23.982043 38.732588 10.408870 3.812979 0.000000 0.000000 0.000000 0.000000 0.000000 0.000000 0.179782 5.789559 -40.013452 5.988004 3.730205 1.509312 -4.963900 -2.939024 -0.451375 0.000000 0.000000 0.000000 0.810216 3.114549 -40.600338 2.783063 2.037013 0.797201 3.179578 -7.008226 -3.390523 0.000000 0.000000 0.000000
